<?xml version="1.0" encoding="UTF-8" standalone="no"?>
<!DOCTYPE svg PUBLIC "-//W3C//DTD SVG 1.1//EN" "http://www.w3.org/Graphics/SVG/1.1/DTD/svg11.dtd">
<svg xmlns="http://www.w3.org/2000/svg" version="1.1" viewBox="0.00 0.00 24.00 24.00">
<path fill="#000000" d="
  M 24.00 1.31
  L 24.00 1.81
  L 18.03 20.53
  A 0.67 0.67 0.0 0 1 17.10 20.92
  L 13.58 19.18
  Q 13.05 18.92 12.67 19.37
  L 9.78 22.79
  Q 8.97 23.75 8.89 22.50
  L 8.50 16.85
  Q 8.45 16.22 8.89 15.77
  L 12.14 12.39
  Q 12.33 12.19 12.12 11.99
  Q 12.02 11.90 11.94 11.81
  Q 11.93 11.80 11.92 11.81
  Q 9.70 13.64 7.42 15.40
  Q 7.01 15.72 6.53 15.49
  L 0.30 12.47
  A 0.44 0.44 0.0 0 1 0.31 11.68
  C 2.74 10.56 23.38 0.61 24.00 1.31
  Z"
/>
</svg>
